<?xml version="1.0" encoding="UTF-8"?>
<svg id="Capa_2" data-name="Capa 2" xmlns="http://www.w3.org/2000/svg" viewBox="0 0 1250.34 714.51">
  <g id="Capa_1-2" data-name="Capa 1">
    <g>
      <path d="m297.6,257.85h-17.56l-3.95,23.72h-20.88l3.95-23.72h-22.77l-4.11,23.72h-20.88l3.95-23.72h-11.86v-20.24h15.34l4.11-23.41h-13.92v-20.24h17.4l3.95-23.09h20.88l-3.95,23.09h22.93l3.95-23.09h20.88l-3.95,23.09h12.02v20.24h-15.5l-4.11,23.41h14.08v20.24Zm-58.36-19.61h23.88l4.11-24.67h-23.88l-4.11,24.67Z"/>
      <path d="m302.97,196.8h24.36l13.6,51.4,15.97-51.72h20.72l16.13,51.88,13.92-51.56h23.88l-26.41,85.41h-21.67l-16.29-52.03-16.61,52.03h-21.51l-26.1-85.41Z"/>
      <path d="m428.55,239.66v-.32c0-24.36,19.61-44.13,46.02-44.13s45.71,19.29,45.71,43.81v.32c0,24.36-19.61,44.12-46.02,44.12s-45.71-19.29-45.71-43.81Zm68.01,0v-.32c0-12.5-9.02-23.41-22.3-23.41s-21.98,10.44-21.98,23.09v.32c0,12.49,9.02,23.41,22.3,23.41s21.98-10.44,21.98-23.09Z"/>
      <path d="m528.19,196.8h24.04v17.08c4.9-11.55,12.65-19.29,27.04-18.66v25.15h-1.27c-15.97,0-25.78,9.49-25.78,29.89v31.32h-24.04v-84.77Z"/>
      <path d="m584.81,166.11h24.04v61.52l28.15-30.84h28.78l-32.26,33.37,33.37,51.4h-27.84l-21.67-34.79-8.54,9.02v25.78h-24.04v-115.46Z"/>
      <path d="m212.82,328.45h-9.96v-19.77h9.96v-5.38c0-9.17,2.21-15.97,6.8-20.56,4.43-4.43,10.91-6.64,19.45-6.64,7.59,0,12.65.95,17.08,2.37v19.93c-3.64-1.27-6.64-2.06-10.91-2.06-5.85,0-8.7,3-8.7,9.17v3.32h19.45v19.61h-19.14v64.21h-24.04v-64.21Z"/>
      <path d="m259.64,307.89h24.04v17.08c4.9-11.55,12.65-19.29,27.04-18.66v25.15h-1.27c-15.97,0-25.78,9.49-25.78,29.89v31.32h-24.04v-84.77Z"/>
      <path d="m309.77,350.75v-.32c0-24.36,19.61-44.13,46.02-44.13s45.71,19.29,45.71,43.81v.32c0,24.36-19.61,44.12-46.02,44.12s-45.71-19.29-45.71-43.81Zm68.01,0v-.32c0-12.5-9.02-23.41-22.3-23.41s-21.98,10.44-21.98,23.09v.32c0,12.49,9.02,23.41,22.3,23.41s21.98-10.44,21.98-23.09Z"/>
      <path d="m409.41,307.89h24.04v12.02c5.54-7.12,12.81-13.6,24.99-13.6,11.23,0,19.45,4.74,23.88,13.44,7.43-8.86,16.29-13.44,27.84-13.44,17.87,0,28.63,10.75,28.63,31.16v55.2h-24.04v-47.29c0-11.39-5.06-17.24-14.08-17.24s-14.55,5.85-14.55,17.24v47.29h-24.04v-47.29c0-11.39-5.06-17.24-14.08-17.24s-14.55,5.85-14.55,17.24v47.29h-24.04v-84.77Z"/>
      <path d="m643.79,307.89h24.99l-32.58,86.83c-6.33,17.24-13.6,23.72-27.84,23.72-8.86,0-15.18-2.21-21.35-5.85l8.07-17.4c3.16,1.9,7.12,3.32,10.28,3.32,4.27,0,6.33-1.26,8.38-5.54l-33.21-85.09h25.46l19.3,57.73,18.5-57.73Z"/>
      <path d="m664.67,350.75v-.32c0-24.36,19.61-44.13,46.02-44.13s45.71,19.29,45.71,43.81v.32c0,24.36-19.61,44.12-46.02,44.12s-45.71-19.29-45.71-43.81Zm68.01,0v-.32c0-12.5-9.01-23.41-22.3-23.41s-21.98,10.44-21.98,23.09v.32c0,12.49,9.01,23.41,22.3,23.41s21.98-10.44,21.98-23.09Z"/>
      <path d="m763.67,362.77v-54.88h24.04v47.29c0,11.39,5.22,17.24,14.55,17.24s15.02-5.85,15.02-17.24v-47.29h24.04v84.77h-24.04v-12.02c-5.54,7.12-12.81,13.6-24.83,13.6-18.35,0-28.78-11.86-28.78-31.47Z"/>
      <path d="m853.35,307.89h24.04v17.08c4.9-11.55,12.65-19.29,27.04-18.66v25.15h-1.27c-15.97,0-25.78,9.49-25.78,29.89v31.32h-24.04v-84.77Z"/>
      <path d="m202.07,492.53l10.28-15.82c9.33,6.8,18.66,10.12,26.73,10.12,6.96,0,10.12-2.53,10.12-6.33v-.32c0-5.22-8.22-6.8-17.56-9.81-11.86-3.32-25.31-9.01-25.31-25.46v-.32c0-17.24,13.92-26.89,31-26.89,10.75,0,22.3,3.64,31.63,9.81l-9.17,16.61c-8.38-4.9-16.76-7.91-22.93-7.91s-8.86,2.53-8.86,5.85v.32c0,4.43,8.07,7.28,17.24,10.12,11.86,3.8,25.62,9.65,25.62,25.15v.32c0,18.82-14.08,27.36-32.42,27.36-12.02,0-24.99-3.95-36.38-12.81Z"/>
      <path d="m274.5,461.85v-.32c0-24.2,18.5-44.13,44.44-44.13,15.97,0,25.78,5.38,33.85,14.23l-14.71,15.82c-5.54-5.69-10.6-9.33-19.29-9.33-12.02,0-20.56,10.44-20.56,23.09v.32c0,13.13,8.38,23.41,21.51,23.41,8.07,0,13.6-3.48,19.45-9.02l14.08,14.23c-8.22,9.01-17.71,15.5-34.64,15.5-25.46,0-44.13-19.77-44.13-43.81Z"/>
      <path d="m359.44,418.99h24.04v17.08c4.9-11.55,12.65-19.29,27.04-18.66v25.15h-1.27c-15.97,0-25.78,9.49-25.78,29.89v31.32h-24.04v-84.77Z"/>
      <path d="m409.57,461.85v-.32c0-24.2,17.24-44.13,41.91-44.13,28.31,0,41.28,21.98,41.28,46.02,0,1.9-.16,3.95-.32,6.33h-58.99c2.37,10.91,9.96,16.61,20.72,16.61,8.07,0,13.76-2.53,20.56-8.7l13.76,12.18c-8.07,9.96-19.29,15.82-34.64,15.82-25.46,0-44.28-17.87-44.28-43.81Zm59.78-7.12c-1.42-10.75-7.75-18.03-17.87-18.03s-16.45,7.12-18.35,18.03h36.22Z"/>
      <path d="m497.03,461.85v-.32c0-24.2,17.24-44.13,41.91-44.13,28.31,0,41.28,21.98,41.28,46.02,0,1.9-.16,3.95-.32,6.33h-58.99c2.37,10.91,9.96,16.61,20.72,16.61,8.07,0,13.76-2.53,20.56-8.7l13.76,12.18c-8.07,9.96-19.29,15.82-34.64,15.82-25.46,0-44.28-17.87-44.28-43.81Zm59.78-7.12c-1.42-10.75-7.75-18.03-17.87-18.03s-16.45,7.12-18.35,18.03h36.22Z"/>
      <path d="m588.6,418.99h24.04v12.02c5.54-7.12,12.81-13.6,24.83-13.6,18.35,0,28.79,11.86,28.79,31.47v54.88h-24.04v-47.29c0-11.39-5.22-17.24-14.55-17.24s-15.02,5.85-15.02,17.24v47.29h-24.04v-84.77Z"/>
      <path d="m671,492.53l10.28-15.82c9.33,6.8,18.66,10.12,26.73,10.12,6.96,0,10.12-2.53,10.12-6.33v-.32c0-5.22-8.22-6.8-17.56-9.81-11.86-3.32-25.3-9.01-25.3-25.46v-.32c0-17.24,13.92-26.89,31-26.89,10.75,0,22.3,3.64,31.63,9.81l-9.17,16.61c-8.38-4.9-16.76-7.91-22.93-7.91-5.85,0-8.86,2.53-8.86,5.85v.32c0,4.43,8.07,7.28,17.24,10.12,11.86,3.8,25.62,9.65,25.62,25.15v.32c0,18.82-14.08,27.36-32.42,27.36-12.02,0-24.99-3.95-36.38-12.81Z"/>
      <path d="m742.48,479.41v-.32c0-18.35,14.08-27.04,34.16-27.04,8.7,0,14.55,1.42,20.72,3.48v-1.42c0-10.12-6.17-15.5-18.19-15.5-9.33,0-15.66,1.58-23.41,4.59l-6.01-18.35c9.33-3.95,18.5-6.8,32.9-6.8,13.29,0,22.46,3.32,28.63,9.49,6.33,6.33,9.17,15.66,9.17,27.04v49.19h-23.25v-9.17c-5.85,6.48-13.76,10.75-25.62,10.75-15.97,0-29.1-9.02-29.1-25.94Zm55.2-5.54v-4.27c-4.27-1.9-9.49-3.16-15.34-3.16-10.28,0-16.61,4.11-16.61,11.7v.32c0,6.49,5.38,10.28,13.13,10.28,11.39,0,18.82-6.01,18.82-14.87Z"/>
      <path d="m820.93,418.99h25.46l18.98,56.78,19.14-56.78h24.99l-33.37,85.41h-21.83l-33.37-85.41Z"/>
      <path d="m905.07,461.85v-.32c0-24.2,17.24-44.13,41.91-44.13,28.31,0,41.28,21.98,41.28,46.02,0,1.9-.16,3.95-.32,6.33h-58.99c2.37,10.91,9.96,16.61,20.72,16.61,8.07,0,13.76-2.53,20.56-8.7l13.76,12.18c-8.07,9.96-19.3,15.82-34.64,15.82-25.46,0-44.28-17.87-44.28-43.81Zm59.78-7.12c-1.42-10.75-7.75-18.03-17.87-18.03s-16.45,7.12-18.35,18.03h36.22Z"/>
      <path d="m996.64,418.99h24.04v17.08c4.9-11.55,12.65-19.29,27.04-18.66v25.15h-1.27c-15.97,0-25.78,9.49-25.78,29.89v31.32h-24.04v-84.77Z"/>
    </g>
    <g>
      <path d="m1093.28,636.83H150.72c-2.1,0-3.8-1.7-3.8-3.8V43.46c0-2.1,1.7-3.8,3.8-3.8h942.56c2.1,0,3.8,1.7,3.8,3.8v589.57c0,2.1-1.7,3.8-3.8,3.8Zm-938.76-7.6h934.95V47.26H154.52v581.97Z"/>
      <path d="m1130.83,675.32c-2.1,0-3.8-1.7-3.8-3.79,0-5.48-.93-549,0-610.29.31-20.46-4.47-35.39-14.2-44.35-11.24-10.35-25.6-9.09-25.74-9.08-.12.01-.28.04-.39.02-4.24,0-214.75-.23-433.59-.23s-453.17.23-485.39,1.17h-.32c-19.51,0-33.31,3.04-41.16,12.4-11.21,13.37-6.61,33.41-6.56,33.61.07.29.1.59.1.89l-.94,614.91c0,2.1-1.7,3.79-3.8,3.79h0c-2.1,0-3.8-1.71-3.79-3.81l.94-614.49c-.75-3.51-4.55-24.49,8.2-39.75,9.44-11.31,25.6-15.17,47.29-15.17C232.75-.68,1070.34.21,1086.54.23c2.18-.18,18.21-1.04,31.34,10.97,11.46,10.49,17.1,27.36,16.75,50.15-.93,61.22,0,604.67,0,610.16,0,2.1-1.7,3.8-3.79,3.81h0Z"/>
      <path d="m1208.52,714.51h0l-641.44-1.41H38.3c-.49,0-.98-.1-1.44-.28l-34.5-14.08C.93,698.16,0,696.77,0,695.22v-23.94c0-1.01.4-1.98,1.11-2.69.71-.71,1.68-1.11,2.69-1.11h0l1241.33.7c2,0,3.66,1.56,3.79,3.56l1.41,21.83c.1,1.59-.8,3.07-2.25,3.72l-38.02,16.9c-.49.22-1.01.33-1.54.33Zm-1169.47-9.01h528.03l640.63,1.41,34.86-15.49-1.01-15.63-1233.97-.7v17.58l31.45,12.84Z"/>
      <path d="m3.8,699.02C1.7,699.02,0,697.33,0,695.23c0-2.1,1.7-3.8,3.8-3.81l1242.74-1.41h0c2.1,0,3.8,1.7,3.8,3.8,0,2.1-1.7,3.8-3.8,3.81l-1242.74,1.41h0Z"/>
      <path d="m600.73,686.4c-16.91,0-30.41-.08-32.9-.32-9.17-.89-11.67-12.88-11.77-13.39l5.53-1.1-2.76.55,2.76-.56c.02.08,1.86,8.41,6.79,8.89,4.82.47,58.52.31,107.16.01,3.68-.02,7.05-1.3,9.51-3.59,1.3-1.22,1.98-2.38,2.02-3.47l5.63.22c-.1,2.62-1.38,5.1-3.8,7.37-3.49,3.26-8.22,5.08-13.32,5.11-14.37.09-48.69.28-74.83.28Z"/>
      <path d="m624.11,34.08c-4.28,0-7.76-3.48-7.76-7.75s3.48-7.75,7.76-7.75,7.75,3.48,7.75,7.75-3.48,7.75-7.75,7.75Zm0-10.8c-1.68,0-3.04,1.36-3.04,3.04s1.36,3.04,3.04,3.04,3.04-1.36,3.04-3.04-1.36-3.04-3.04-3.04Z"/>
    </g>
  </g>
</svg>