<?xml version="1.0" encoding="UTF-8"?>
<svg id="Capa_2" data-name="Capa 2" xmlns="http://www.w3.org/2000/svg" viewBox="0 0 106.05 50">
  <defs>
    <style>
      .cls-1 {
        fill: #520bff;
      }
    </style>
  </defs>
  <g id="Capa_1-2" data-name="Capa 1">
    <g>
      <path class="cls-1" d="m66.05,0c-4.32,0-8.33,1.68-11.31,4.74-.77.8-.74,2.05.07,2.81.81.76,2.1.72,2.87-.07,2.2-2.26,5.17-3.5,8.36-3.5,6.36,0,11.53,5.05,11.53,11.26s-5.17,11.26-11.53,11.26c-7.97,0-9.96-5.31-11.59-11.73-1.3-5.16-3.73-14.75-15.53-14.75-8.6,0-15.59,6.83-15.59,15.23s7,15.23,15.59,15.23c4.32,0,8.33-1.68,11.31-4.74.77-.8.74-2.05-.07-2.81-.81-.76-2.1-.72-2.87.07-2.2,2.26-5.17,3.5-8.36,3.5-6.36,0-11.53-5.05-11.53-11.26s5.17-11.26,11.53-11.26c7.97,0,9.96,5.31,11.59,11.73,1.3,5.16,3.73,14.75,15.53,14.75,8.6,0,15.59-6.83,15.59-15.23S74.64,0,66.05,0Z"/>
      <path class="cls-1" d="m38.85,21.26c-.48,0-.9-.28-1.09-.71l-3.9-9.18c-.12-.28-.12-.6,0-.88.12-.28.35-.5.64-.62.6-.24,1.29.04,1.54.62l2.81,6.62,2.82-6.64c.12-.28.35-.5.64-.62.29-.12.61-.12.9,0,.29.12.52.34.64.62.12.28.12.6,0,.88l-3.91,9.21c-.18.43-.61.71-1.09.71Z"/>
      <path class="cls-1" d="m66.12,9.2c.48,0,.9.28,1.09.71l3.9,9.18c.12.28.12.6,0,.88-.12.28-.35.5-.64.62-.6.24-1.29-.04-1.54-.62l-2.81-6.62-2.82,6.64c-.12.28-.35.5-.64.62-.29.12-.61.12-.9,0-.29-.12-.52-.34-.64-.62-.12-.28-.12-.6,0-.88l3.91-9.21c.18-.43.61-.71,1.09-.71Z"/>
      <path class="cls-1" d="m45.69,47c-.28,0-.51-.09-.7-.28-.18-.18-.28-.41-.28-.69v-6.2c0-.27.09-.5.28-.69.18-.18.42-.28.7-.28s.51.09.7.28c.18.18.28.41.28.69v.03c.23-.35.55-.62.95-.81.45-.22.93-.33,1.44-.33.32,0,.59.09.81.27.22.18.33.39.33.64,0,.32-.09.57-.26.73-.17.16-.38.25-.62.25-.16,0-.34-.04-.54-.11-.03,0-.1-.03-.2-.06-.1-.03-.21-.04-.33-.04-.26,0-.51.08-.74.23-.24.15-.44.39-.59.71-.15.32-.23.7-.23,1.14v3.56c0,.27-.09.5-.27.69-.18.18-.42.28-.7.28Z"/>
      <path class="cls-1" d="m54.77,50c-.31,0-.74-.05-1.28-.15-.54-.1-.93-.2-1.16-.3-.52-.22-.78-.52-.78-.91,0-.08.02-.16.05-.26.06-.23.18-.4.33-.52.16-.12.33-.18.51-.18.11,0,.21.02.31.05.02,0,.13.04.76.28.46.17.88.26,1.25.26.74,0,1.31-.15,1.67-.43.36-.28.54-.69.54-1.22v-.58c-.23.27-.55.52-.95.74-.46.25-.96.38-1.49.38-.72,0-1.39-.18-1.99-.54-.59-.36-1.07-.86-1.41-1.5-.34-.63-.51-1.36-.51-2.17s.17-1.54.5-2.17c.34-.64.8-1.15,1.39-1.5.58-.36,1.24-.54,1.96-.54.53,0,1.03.11,1.48.32.41.19.76.42,1.02.69v-.05c0-.27.09-.5.28-.69.18-.18.42-.28.7-.28s.51.09.7.27c.18.18.28.41.28.69v6.68c0,1.23-.4,2.15-1.18,2.75-.78.59-1.78.89-2.98.89Zm0-9.53c-.67,0-1.22.24-1.64.7-.42.47-.63,1.06-.63,1.77s.21,1.3.63,1.76c.42.46.97.7,1.64.7s1.22-.23,1.65-.7c.43-.46.64-1.06.64-1.76s-.22-1.3-.64-1.77c-.43-.47-.98-.7-1.65-.7Z"/>
      <path class="cls-1" d="m100.62,47.15c-.71,0-1.37-.18-1.95-.54s-1.04-.86-1.38-1.5c-.34-.63-.51-1.36-.51-2.17s.17-1.54.5-2.17c.33-.64.79-1.15,1.36-1.5.57-.36,1.22-.54,1.91-.54.5,0,.97.09,1.4.27.4.16.74.37,1.03.61.02-.23.11-.44.27-.6.18-.18.42-.28.7-.28s.51.09.69.27c.18.18.28.41.28.69v5.33c0,.08.01.15.04.2.03.05.06.06.08.06,0,0,.05,0,.19-.06.11-.05.23-.07.33-.07.13,0,.24.05.34.16.09.1.14.26.14.46,0,.36-.16.67-.49.9-.32.23-.72.35-1.19.35-.3,0-.56-.08-.78-.25-.14-.11-.38-.32-.51-.59-.28.29-.69.5-1.06.68-.44.21-.91.31-1.4.31Zm.23-6.68c-.64,0-1.17.24-1.58.7-.41.47-.62,1.06-.62,1.77s.21,1.3.61,1.76c.4.46.94.7,1.59.7s1.19-.23,1.6-.7c.41-.46.62-1.06.62-1.76s-.21-1.3-.62-1.77c-.41-.47-.95-.7-1.6-.7Z"/>
      <path class="cls-1" d="m22.92,37.9c-.74,0-1.35-.58-1.35-1.29s.6-1.29,1.35-1.29,1.35.58,1.35,1.29-.6,1.29-1.35,1.29Z"/>
      <path class="cls-1" d="m22.92,47c-.28,0-.51-.09-.7-.28-.18-.18-.28-.41-.28-.69v-6.2c0-.27.09-.5.28-.69.18-.18.42-.28.7-.28s.51.09.7.28c.18.18.27.41.27.69v6.2c0,.27-.09.5-.27.69-.18.18-.42.28-.7.28Z"/>
      <path class="cls-1" d="m34.84,47c-.12,0-.24-.02-.36-.07-.23-.09-.41-.27-.51-.5-.1-.23-.1-.47,0-.7l3.91-9.21c.15-.34.49-.56.87-.56s.72.22.87.56l3.9,9.18c.2.47-.03,1-.51,1.19-.23.09-.49.09-.72,0-.23-.09-.41-.27-.51-.5l-3.03-7.14-3.04,7.17c-.15.34-.48.56-.87.56Z"/>
      <path class="cls-1" d="m4.84,47c-.38,0-.72-.22-.87-.56L.07,37.26c-.2-.47.03-1,.51-1.19.48-.19,1.03.03,1.23.5l3.03,7.14,3.04-7.17c.2-.47.75-.69,1.23-.49.48.19.7.73.51,1.19l-3.91,9.21c-.15.34-.49.56-.87.56Z"/>
      <path class="cls-1" d="m11.87,47c-.28,0-.51-.09-.7-.28-.18-.18-.27-.41-.27-.69v-6.2c0-.27.09-.5.27-.69.18-.18.42-.28.7-.28s.51.09.7.28c.18.18.28.41.28.69v6.2c0,.27-.09.5-.28.69-.18.18-.42.28-.7.28Zm1.35-10.39c0-.71-.6-1.29-1.35-1.29s-1.35.58-1.35,1.29.6,1.29,1.35,1.29,1.35-.58,1.35-1.29Z"/>
      <path class="cls-1" d="m17.54,46.95c-.68,0-1.32-.11-1.91-.33-.59-.22-1.08-.59-1.45-1.08-.1-.13-.15-.29-.15-.48,0-.28.14-.51.42-.7.15-.1.31-.14.47-.14.23,0,.45.1.65.3.3.3.62.53.95.68.33.15.73.22,1.19.22.78-.03,1.15-.3,1.15-.84,0-.27-.13-.48-.38-.62-.27-.15-.69-.3-1.26-.45-.59-.16-1.09-.32-1.46-.48-.38-.16-.71-.41-.99-.74-.28-.33-.42-.78-.42-1.34,0-.49.15-.92.43-1.28.29-.36.66-.64,1.13-.84.93-.4,2.01-.39,3.06,0,.53.19.95.48,1.25.86.14.17.21.36.21.57,0,.24-.1.45-.31.61-.15.12-.33.18-.52.18-.24,0-.44-.08-.59-.22-.18-.22-.42-.39-.7-.52-.28-.13-.61-.19-.97-.19-.75,0-1.12.25-1.12.78,0,.21.07.37.2.5.14.13.32.23.53.3.22.07.53.17.93.28.55.15,1.02.31,1.39.47.38.16.7.41.96.75.26.34.39.79.39,1.33,0,.5-.15.94-.46,1.31-.3.37-.69.65-1.17.85-.47.19-.96.29-1.46.29Z"/>
      <path class="cls-1" d="m28.8,47c-.64,0-1.19-.14-1.63-.41-.45-.27-.68-.85-.68-1.73v-4.09h-.66c-.26,0-.48-.09-.65-.25-.17-.17-.26-.38-.26-.63s.09-.45.26-.61c.17-.16.39-.25.65-.25h.66v-1.73c0-.27.1-.5.28-.69.19-.18.43-.28.7-.28s.5.09.68.28c.18.18.27.41.27.69v1.73h1.04c.26,0,.48.09.65.25.17.17.26.38.26.63s-.09.45-.26.61c-.17.16-.39.25-.65.25h-1.04v4.02c0,.19.05.34.15.42.1.09.25.13.43.13.08,0,.19-.02.33-.06.12-.05.25-.08.37-.08.16,0,.3.07.43.22.12.14.19.33.19.56,0,.29-.16.53-.48.72-.31.19-.66.29-1.05.29Z"/>
      <path class="cls-1" d="m67.38,40.75c-.36-.61-.85-1.11-1.46-1.47-.6-.36-1.26-.55-1.94-.55s-1.35.18-1.96.52c-.61.35-1.11.86-1.48,1.51-.37.65-.56,1.42-.56,2.29,0,.77.18,1.48.53,2.1.35.62.86,1.11,1.5,1.47.65.35,1.41.53,2.28.53.49,0,.99-.08,1.48-.24.48-.16.88-.36,1.17-.59.3-.23.45-.49.45-.77,0-.21-.08-.4-.25-.56-.28-.28-.68-.32-1.14-.1-.05.03-.15.09-.29.17-.13.08-.32.16-.55.24-.23.07-.56.11-.97.11-.54,0-1.03-.17-1.46-.49-.42-.32-.69-.75-.82-1.3h5.02c.26,0,.48-.08.68-.24.19-.16.3-.37.31-.62,0-.72-.18-1.39-.54-2Zm-5.56,1.36v-.06c.23-1.11.95-1.67,2.17-1.67.49,0,.94.15,1.32.46.39.31.61.68.65,1.11v.16h-4.14Z"/>
      <path class="cls-1" d="m75.59,47c-.28,0-.51-.09-.7-.28-.18-.18-.28-.41-.28-.69v-3.84c0-.54-.12-.97-.34-1.27-.22-.3-.62-.45-1.18-.45s-1.04.16-1.37.49c-.33.32-.49.74-.49,1.24v3.84c0,.27-.09.5-.27.69s-.42.28-.7.28-.51-.09-.7-.28c-.18-.18-.28-.41-.28-.69v-6.2c0-.27.09-.5.28-.69.18-.18.42-.28.7-.28s.51.09.7.28c.18.18.27.41.27.69v.12c.27-.32.61-.6,1.01-.83.45-.26.95-.4,1.49-.4,1.06,0,1.8.31,2.21.93.4.61.61,1.46.61,2.54v3.84c0,.27-.09.5-.28.69-.18.18-.42.28-.7.28Z"/>
      <path class="cls-1" d="m81.5,47c-.64,0-1.19-.14-1.63-.41-.45-.27-.68-.85-.68-1.73v-4.09h-.66c-.26,0-.48-.09-.65-.25-.17-.17-.26-.38-.26-.63s.09-.45.26-.61c.17-.16.39-.25.65-.25h.66v-1.73c0-.27.1-.5.28-.69.19-.18.43-.28.7-.28s.5.09.68.28c.18.18.27.41.27.69v1.73h1.04c.26,0,.48.09.65.25.17.17.26.38.26.63s-.09.45-.26.61c-.17.16-.39.25-.65.25h-1.04v4.02c0,.19.05.34.15.42.1.09.25.13.43.13.08,0,.19-.02.33-.06.12-.05.25-.08.37-.08.16,0,.3.07.43.22.12.14.19.33.19.56,0,.29-.16.53-.48.72-.31.19-.66.29-1.05.29Z"/>
      <path class="cls-1" d="m85.47,47c-.28,0-.51-.09-.7-.28-.18-.18-.28-.41-.28-.69v-6.2c0-.27.09-.5.28-.69.18-.18.42-.28.7-.28s.51.09.7.28c.18.18.28.41.28.69v6.2c0,.27-.09.5-.28.69-.18.18-.42.28-.7.28Zm1.35-10.39c0-.71-.6-1.29-1.35-1.29s-1.35.58-1.35,1.29.6,1.29,1.35,1.29,1.35-.58,1.35-1.29Z"/>
      <path class="cls-1" d="m94.45,47c-.28,0-.51-.09-.7-.28-.18-.18-.28-.41-.28-.69v-3.84c0-.54-.12-.97-.34-1.27-.22-.3-.62-.45-1.18-.45s-1.04.16-1.37.49c-.33.32-.49.74-.49,1.24v3.84c0,.27-.09.5-.28.69-.18.18-.42.28-.7.28s-.51-.09-.7-.28c-.18-.18-.28-.41-.28-.69v-6.2c0-.27.09-.5.28-.69.18-.18.42-.28.7-.28s.51.09.7.28c.18.18.28.41.28.69v.12c.27-.32.61-.6,1.01-.83.45-.26.95-.4,1.49-.4,1.06,0,1.8.31,2.21.93.4.61.61,1.46.61,2.54v3.84c0,.27-.09.5-.27.69-.18.18-.42.28-.7.28Z"/>
    </g>
  </g>
</svg>