<?xml version="1.0" encoding="UTF-8"?>
<svg id="Capa_2" data-name="Capa 2" xmlns="http://www.w3.org/2000/svg" viewBox="0 0 180.29 103.03">
  <g id="Capa_1-2" data-name="Capa 1">
    <g>
      <g>
        <path d="m44.96,27.98h-2.64l-.59,3.57h-3.14l.59-3.57h-3.43l-.62,3.57h-3.14l.59-3.57h-1.78v-3.05h2.31l.62-3.52h-2.09v-3.05h2.62l.59-3.47h3.14l-.59,3.47h3.45l.59-3.47h3.14l-.59,3.47h1.81v3.05h-2.33l-.62,3.52h2.12v3.05Zm-8.78-2.95h3.59l.62-3.71h-3.59l-.62,3.71Z"/>
        <path d="m48.36,27.93v-6.04h-1.52v-3.09h1.52v-3.26h3.62v3.26h3v3.09h-3v5.45c0,.83.38,1.24,1.17,1.24.64,0,1.24-.14,1.78-.45v2.9c-.76.45-1.64.74-2.86.74-2.19,0-3.71-.88-3.71-3.83Z"/>
        <path d="m56.22,18.79h3.62v2.57c.74-1.74,1.9-2.9,4.07-2.81v3.78h-.19c-2.4,0-3.88,1.43-3.88,4.5v4.71h-3.62v-12.76Z"/>
        <path d="m63.38,27.88v-.05c0-2.76,2.12-4.07,5.14-4.07,1.31,0,2.19.21,3.12.52v-.21c0-1.52-.93-2.33-2.74-2.33-1.4,0-2.36.24-3.52.69l-.9-2.76c1.4-.59,2.78-1.02,4.95-1.02,2,0,3.38.5,4.31,1.43.95.95,1.38,2.36,1.38,4.07v7.4h-3.5v-1.38c-.88.98-2.07,1.62-3.86,1.62-2.4,0-4.38-1.36-4.38-3.9Zm8.3-.83v-.64c-.64-.29-1.43-.48-2.31-.48-1.55,0-2.5.62-2.5,1.76v.05c0,.98.81,1.55,1.98,1.55,1.71,0,2.83-.9,2.83-2.24Z"/>
        <path d="m80.42,29.88v1.67h-3.62V14.18h3.62v6.45c.88-1.21,2.07-2.07,3.97-2.07,2.97,0,5.81,2.33,5.81,6.59v.05c0,4.26-2.78,6.59-5.81,6.59-1.93,0-3.12-.88-3.97-1.9Zm6.16-4.69v-.05c0-2.12-1.43-3.52-3.12-3.52s-3.09,1.4-3.09,3.52v.05c0,2.12,1.4,3.52,3.09,3.52s3.12-1.38,3.12-3.52Z"/>
        <path d="m90.67,27.88v-.05c0-2.76,2.12-4.07,5.14-4.07,1.31,0,2.19.21,3.12.52v-.21c0-1.52-.93-2.33-2.74-2.33-1.4,0-2.36.24-3.52.69l-.9-2.76c1.4-.59,2.78-1.02,4.95-1.02,2,0,3.38.5,4.31,1.43.95.95,1.38,2.36,1.38,4.07v7.4h-3.5v-1.38c-.88.98-2.07,1.62-3.86,1.62-2.4,0-4.38-1.36-4.38-3.9Zm8.3-.83v-.64c-.64-.29-1.43-.48-2.31-.48-1.55,0-2.5.62-2.5,1.76v.05c0,.98.81,1.55,1.98,1.55,1.71,0,2.83-.9,2.83-2.24Z"/>
        <path d="m102.21,35.29v-2.83c.29.05.55.07.76.07.76,0,1.28-.4,1.28-1.48v-12.26h3.62v12.54c0,2.83-1.4,4.09-4.09,4.09-.67,0-1.07-.05-1.57-.14Zm1.95-21.11h3.81v3.21h-3.81v-3.21Z"/>
        <path d="m109.09,27.88v-.05c0-2.76,2.12-4.07,5.14-4.07,1.31,0,2.19.21,3.12.52v-.21c0-1.52-.93-2.33-2.74-2.33-1.4,0-2.36.24-3.52.69l-.9-2.76c1.4-.59,2.78-1.02,4.95-1.02,2,0,3.38.5,4.31,1.43.95.95,1.38,2.36,1.38,4.07v7.4h-3.5v-1.38c-.88.98-2.07,1.62-3.86,1.62-2.4,0-4.38-1.36-4.38-3.9Zm8.3-.83v-.64c-.64-.29-1.43-.48-2.31-.48-1.55,0-2.5.62-2.5,1.76v.05c0,.98.81,1.55,1.98,1.55,1.71,0,2.83-.9,2.83-2.24Z"/>
        <path d="m31.01,41.91v-.05c0-4.26,2.78-6.59,5.81-6.59,1.93,0,3.12.88,3.97,1.9v-6.28h3.62v17.37h-3.62v-1.83c-.88,1.21-2.07,2.07-3.97,2.07-2.97,0-5.81-2.33-5.81-6.59Zm9.83,0v-.05c0-2.12-1.4-3.52-3.09-3.52s-3.12,1.38-3.12,3.52v.05c0,2.12,1.43,3.52,3.12,3.52s3.09-1.4,3.09-3.52Z"/>
        <path d="m45.6,41.96v-.05c0-3.64,2.59-6.64,6.31-6.64,4.26,0,6.21,3.31,6.21,6.92,0,.29-.02.59-.05.95h-8.88c.36,1.64,1.5,2.5,3.12,2.5,1.21,0,2.07-.38,3.09-1.31l2.07,1.83c-1.21,1.5-2.9,2.38-5.21,2.38-3.83,0-6.66-2.69-6.66-6.59Zm9-1.07c-.21-1.62-1.17-2.71-2.69-2.71s-2.47,1.07-2.76,2.71h5.45Z"/>
        <path d="m58.38,46.58l1.55-2.38c1.4,1.02,2.81,1.52,4.02,1.52,1.05,0,1.52-.38,1.52-.95v-.05c0-.79-1.24-1.02-2.64-1.48-1.78-.5-3.81-1.36-3.81-3.83v-.05c0-2.59,2.09-4.05,4.66-4.05,1.62,0,3.36.55,4.76,1.48l-1.38,2.5c-1.26-.74-2.52-1.19-3.45-1.19s-1.33.38-1.33.88v.05c0,.67,1.21,1.09,2.59,1.52,1.78.57,3.86,1.45,3.86,3.78v.05c0,2.83-2.12,4.12-4.88,4.12-1.81,0-3.76-.59-5.47-1.93Z"/>
        <path d="m69.33,41.91v-.05c0-4.26,2.78-6.59,5.81-6.59,1.93,0,3.12.88,3.97,1.9v-6.28h3.62v17.37h-3.62v-1.83c-.88,1.21-2.07,2.07-3.97,2.07-2.97,0-5.81-2.33-5.81-6.59Zm9.83,0v-.05c0-2.12-1.4-3.52-3.09-3.52s-3.12,1.38-3.12,3.52v.05c0,2.12,1.43,3.52,3.12,3.52s3.09-1.4,3.09-3.52Z"/>
        <path d="m83.91,41.96v-.05c0-3.64,2.59-6.64,6.31-6.64,4.26,0,6.21,3.31,6.21,6.92,0,.29-.02.59-.05.95h-8.88c.36,1.64,1.5,2.5,3.12,2.5,1.21,0,2.07-.38,3.09-1.31l2.07,1.83c-1.21,1.5-2.9,2.38-5.21,2.38-3.83,0-6.66-2.69-6.66-6.59Zm9-1.07c-.21-1.62-1.17-2.71-2.69-2.71s-2.47,1.07-2.76,2.71h5.45Z"/>
        <path d="m104,44.65v-6.04h-1.52v-3.09h1.52v-3.26h3.62v3.26h3v3.09h-3v5.45c0,.83.38,1.24,1.17,1.24.64,0,1.24-.14,1.78-.45v2.9c-.76.45-1.64.74-2.86.74-2.19,0-3.71-.88-3.71-3.83Z"/>
        <path d="m111.76,43.77v-8.26h3.62v7.12c0,1.71.79,2.59,2.19,2.59s2.26-.88,2.26-2.59v-7.12h3.62v12.76h-3.62v-1.81c-.83,1.07-1.93,2.05-3.74,2.05-2.76,0-4.33-1.78-4.33-4.74Z"/>
        <path d="m32.2,55.32h-1.5v-2.97h1.5v-.81c0-1.38.33-2.4,1.02-3.09.67-.67,1.64-1,2.93-1,1.14,0,1.9.14,2.57.36v3c-.55-.19-1-.31-1.64-.31-.88,0-1.31.45-1.31,1.38v.5h2.93v2.95h-2.88v9.66h-3.62v-9.66Z"/>
        <path d="m38.39,58.68v-.05c0-3.66,2.95-6.64,6.92-6.64s6.88,2.9,6.88,6.59v.05c0,3.66-2.95,6.64-6.92,6.64s-6.88-2.9-6.88-6.59Zm10.23,0v-.05c0-1.88-1.36-3.52-3.36-3.52s-3.31,1.57-3.31,3.47v.05c0,1.88,1.36,3.52,3.36,3.52s3.31-1.57,3.31-3.47Z"/>
        <path d="m53.38,52.23h3.62v1.81c.83-1.07,1.93-2.05,3.74-2.05,2.76,0,4.33,1.78,4.33,4.74v8.26h-3.62v-7.12c0-1.71-.79-2.59-2.19-2.59s-2.26.88-2.26,2.59v7.12h-3.62v-12.76Z"/>
        <path d="m66.21,58.63v-.05c0-4.26,2.78-6.59,5.81-6.59,1.93,0,3.12.88,3.97,1.9v-6.28h3.62v17.37h-3.62v-1.83c-.88,1.21-2.07,2.07-3.97,2.07-2.97,0-5.81-2.33-5.81-6.59Zm9.83,0v-.05c0-2.12-1.4-3.52-3.09-3.52s-3.12,1.38-3.12,3.52v.05c0,2.12,1.43,3.52,3.12,3.52s3.09-1.4,3.09-3.52Z"/>
        <path d="m80.8,58.68v-.05c0-3.66,2.95-6.64,6.92-6.64s6.88,2.9,6.88,6.59v.05c0,3.66-2.95,6.64-6.92,6.64s-6.88-2.9-6.88-6.59Zm10.23,0v-.05c0-1.88-1.36-3.52-3.36-3.52s-3.31,1.57-3.31,3.47v.05c0,1.88,1.36,3.52,3.36,3.52s3.31-1.57,3.31-3.47Z"/>
        <path d="m100.93,58.63v-.05c0-4.26,2.78-6.59,5.81-6.59,1.93,0,3.12.88,3.97,1.9v-6.28h3.62v17.37h-3.62v-1.83c-.88,1.21-2.07,2.07-3.97,2.07-2.97,0-5.81-2.33-5.81-6.59Zm9.83,0v-.05c0-2.12-1.4-3.52-3.09-3.52s-3.12,1.38-3.12,3.52v.05c0,2.12,1.43,3.52,3.12,3.52s3.09-1.4,3.09-3.52Z"/>
        <path d="m115.51,58.68v-.05c0-3.64,2.59-6.64,6.31-6.64,4.26,0,6.21,3.31,6.21,6.92,0,.29-.02.59-.05.95h-8.88c.36,1.64,1.5,2.5,3.12,2.5,1.21,0,2.07-.38,3.09-1.31l2.07,1.83c-1.21,1.5-2.9,2.38-5.21,2.38-3.83,0-6.66-2.69-6.66-6.59Zm9-1.07c-.21-1.62-1.17-2.71-2.69-2.71s-2.47,1.07-2.76,2.71h5.45Z"/>
        <path d="m31.59,68.94h3.62v1.83c.88-1.21,2.07-2.07,3.97-2.07,2.97,0,5.81,2.33,5.81,6.59v.05c0,4.26-2.78,6.59-5.81,6.59-1.93,0-3.12-.88-3.97-1.9v5.47h-3.62v-16.56Zm9.78,6.4v-.05c0-2.12-1.43-3.52-3.12-3.52s-3.09,1.4-3.09,3.52v.05c0,2.12,1.4,3.52,3.09,3.52s3.12-1.38,3.12-3.52Z"/>
        <path d="m45.46,78.03v-.05c0-2.76,2.12-4.07,5.14-4.07,1.31,0,2.19.21,3.12.52v-.21c0-1.52-.93-2.33-2.74-2.33-1.4,0-2.36.24-3.52.69l-.9-2.76c1.4-.59,2.78-1.02,4.95-1.02,2,0,3.38.5,4.31,1.43.95.95,1.38,2.36,1.38,4.07v7.4h-3.5v-1.38c-.88.98-2.07,1.62-3.86,1.62-2.4,0-4.38-1.36-4.38-3.9Zm8.3-.83v-.64c-.64-.29-1.43-.48-2.31-.48-1.55,0-2.5.62-2.5,1.76v.05c0,.98.81,1.55,1.98,1.55,1.71,0,2.83-.9,2.83-2.24Z"/>
        <path d="m58.88,68.94h3.62v1.81c.83-1.07,1.93-2.05,3.74-2.05,2.76,0,4.33,1.78,4.33,4.74v8.26h-3.62v-7.12c0-1.71-.79-2.59-2.19-2.59s-2.26.88-2.26,2.59v7.12h-3.62v-12.76Z"/>
        <path d="m72.87,78.08v-6.04h-1.52v-3.09h1.52v-3.26h3.62v3.26h3v3.09h-3v5.45c0,.83.38,1.24,1.17,1.24.64,0,1.24-.14,1.78-.45v2.9c-.76.45-1.64.74-2.86.74-2.19,0-3.71-.88-3.71-3.83Z"/>
        <path d="m79.96,78.03v-.05c0-2.76,2.12-4.07,5.14-4.07,1.31,0,2.19.21,3.12.52v-.21c0-1.52-.93-2.33-2.74-2.33-1.4,0-2.36.24-3.52.69l-.9-2.76c1.4-.59,2.78-1.02,4.95-1.02,2,0,3.38.5,4.31,1.43.95.95,1.38,2.36,1.38,4.07v7.4h-3.5v-1.38c-.88.98-2.07,1.62-3.86,1.62-2.4,0-4.38-1.36-4.38-3.9Zm8.3-.83v-.64c-.64-.29-1.43-.48-2.31-.48-1.55,0-2.5.62-2.5,1.76v.05c0,.98.81,1.55,1.98,1.55,1.71,0,2.83-.9,2.83-2.24Z"/>
        <path d="m93.55,64.33h3.62v17.37h-3.62v-17.37Z"/>
        <path d="m99.31,64.33h3.62v17.37h-3.62v-17.37Z"/>
        <path d="m104.14,78.03v-.05c0-2.76,2.12-4.07,5.14-4.07,1.31,0,2.19.21,3.12.52v-.21c0-1.52-.93-2.33-2.74-2.33-1.4,0-2.36.24-3.52.69l-.9-2.76c1.4-.59,2.78-1.02,4.95-1.02,2,0,3.38.5,4.31,1.43.95.95,1.38,2.36,1.38,4.07v7.4h-3.5v-1.38c-.88.98-2.07,1.62-3.86,1.62-2.4,0-4.38-1.36-4.38-3.9Zm8.3-.83v-.64c-.64-.29-1.43-.48-2.31-.48-1.55,0-2.5.62-2.5,1.76v.05c0,.98.81,1.55,1.98,1.55,1.71,0,2.83-.9,2.83-2.24Z"/>
      </g>
      <g>
        <path d="m157.64,91.83H21.73c-.3,0-.55-.25-.55-.55V6.27c0-.3.25-.55.55-.55h135.91c.3,0,.55.25.55.55v85.01c0,.3-.25.55-.55.55Zm-135.36-1.1h134.81V6.81H22.28v83.91Z"/>
        <path d="m163.06,97.38c-.3,0-.55-.24-.55-.55,0-.79-.13-79.16,0-88,.04-2.95-.64-5.1-2.05-6.4-1.62-1.49-3.69-1.31-3.71-1.31-.02,0-.04,0-.06,0-.61,0-30.97-.03-62.52-.03s-65.34.03-69.99.17c-.02,0-.03,0-.05,0-2.81-.16-4.8.44-5.93,1.79-1.62,1.93-.95,4.82-.95,4.85,0,.04.02.09.02.13l-.14,88.67c0,.3-.25.55-.55.55h0c-.3,0-.55-.25-.55-.55l.14-88.6c-.11-.51-.66-3.53,1.18-5.73C18.72.72,21.01-.01,24.18.17,33.56-.1,154.33.03,156.67.03c.31-.03,2.63-.15,4.52,1.58,1.65,1.51,2.47,3.95,2.42,7.23-.13,8.83,0,87.19,0,87.98,0,.3-.24.55-.55.55h0Z"/>
        <path d="m174.26,103.03h0l-92.49-.2H5.52c-.07,0-.14-.01-.21-.04l-4.97-2.03C.13,100.67,0,100.47,0,100.25v-3.45c0-.15.06-.28.16-.39.1-.1.24-.16.39-.16h0l178.99.1c.29,0,.53.22.55.51l.2,3.15c.01.23-.11.44-.32.54l-5.48,2.44c-.07.03-.15.05-.22.05Zm-168.63-1.3h76.14l92.37.2,5.03-2.23-.15-2.25-177.93-.1v2.54l4.53,1.85Z"/>
        <path d="m.55,100.79C.25,100.79,0,100.55,0,100.25c0-.3.24-.55.55-.55l179.19-.2h0c.3,0,.55.24.55.55,0,.3-.24.55-.55.55l-179.19.2h0Z"/>
        <path d="m86.62,98.97c-2.44,0-4.39-.01-4.74-.05-1.32-.13-1.68-1.86-1.7-1.93l.8-.16-.4.08.4-.08s.27,1.21.98,1.28c.7.07,8.44.05,15.45,0,.53,0,1.02-.19,1.37-.52.19-.18.29-.34.29-.5l.81.03c-.01.38-.2.74-.55,1.06-.5.47-1.19.73-1.92.74-2.07.01-7.02.04-10.79.04Z"/>
        <path d="m89.99,4.91c-.62,0-1.12-.5-1.12-1.12s.5-1.12,1.12-1.12,1.12.5,1.12,1.12-.5,1.12-1.12,1.12Zm0-1.56c-.24,0-.44.2-.44.44s.2.44.44.44.44-.2.44-.44-.2-.44-.44-.44Z"/>
      </g>
    </g>
  </g>
</svg>