<?xml version="1.0" encoding="utf-8"?>
<!-- Generator: Adobe Illustrator 27.8.1, SVG Export Plug-In . SVG Version: 6.00 Build 0)  -->
<svg version="1.1" id="Capa_1" xmlns="http://www.w3.org/2000/svg" xmlns:xlink="http://www.w3.org/1999/xlink" x="0px" y="0px"
	 viewBox="0 0 1920 1080" style="enable-background:new 0 0 1920 1080;" xml:space="preserve">
<style type="text/css">
	.st0{stroke:#353435;stroke-width:7.6016;stroke-miterlimit:10;}
</style>
<g>
	<g>
		<g>
			<path d="M646.63,407.21h-18.32l-4.13,24.76H602.4l4.13-24.76h-23.76l-4.29,24.76h-21.78l4.13-24.76h-12.38v-21.12h16.01
				l4.29-24.43h-14.52v-21.12h18.15l4.13-24.1h21.79l-4.13,24.1h23.93l4.13-24.1h21.78l-4.13,24.1h12.54v21.12h-16.17l-4.29,24.43
				h14.69V407.21z M585.74,386.74h24.92l4.29-25.75h-24.92L585.74,386.74z"/>
		</g>
		<g>
			<path d="M670.23,406.88v-41.92h-10.56V343.5h10.56v-22.61h25.09v22.61h20.79v21.45h-20.79v37.79c0,5.78,2.64,8.58,8.09,8.58
				c4.46,0,8.58-0.99,12.38-3.14v20.13c-5.28,3.14-11.39,5.12-19.8,5.12C680.8,433.45,670.23,427.34,670.23,406.88z"/>
		</g>
		<g>
			<path d="M724.69,343.5h25.08v17.82c5.12-12.05,13.2-20.13,28.22-19.47v26.24h-1.32c-16.67,0-26.9,9.9-26.9,31.19v32.68h-25.08
				V343.5z"/>
		</g>
		<g>
			<path d="M774.37,406.55v-0.33c0-19.14,14.69-28.22,35.65-28.22c9.08,0,15.18,1.49,21.62,3.63v-1.49
				c0-10.56-6.44-16.17-18.98-16.17c-9.74,0-16.34,1.65-24.43,4.79l-6.27-19.14c9.74-4.13,19.31-7.1,34.33-7.1
				c13.86,0,23.44,3.47,29.87,9.9c6.6,6.6,9.57,16.34,9.57,28.22v51.33h-24.26v-9.57c-6.11,6.77-14.36,11.22-26.74,11.22
				C788.07,433.61,774.37,424.2,774.37,406.55z M831.97,400.77v-4.46c-4.46-1.98-9.9-3.3-16.01-3.3c-10.73,0-17.33,4.29-17.33,12.21
				v0.33c0,6.77,5.61,10.73,13.7,10.73C824.21,416.28,831.97,410.01,831.97,400.77z"/>
		</g>
		<g>
			<path d="M892.54,420.41v11.55h-25.08V311.49h25.08v44.72c6.11-8.42,14.36-14.36,27.56-14.36c20.63,0,40.27,16.17,40.27,45.71
				v0.33c0,29.54-19.31,45.71-40.27,45.71C906.73,433.61,898.48,427.51,892.54,420.41z M935.28,387.9v-0.33
				c0-14.69-9.9-24.43-21.62-24.43c-11.72,0-21.45,9.74-21.45,24.43v0.33c0,14.69,9.74,24.43,21.45,24.43
				C925.38,412.32,935.28,402.75,935.28,387.9z"/>
		</g>
		<g>
			<path d="M963.66,406.55v-0.33c0-19.14,14.69-28.22,35.65-28.22c9.08,0,15.18,1.49,21.62,3.63v-1.49
				c0-10.56-6.44-16.17-18.98-16.17c-9.74,0-16.34,1.65-24.43,4.79l-6.27-19.14c9.74-4.13,19.31-7.1,34.33-7.1
				c13.86,0,23.43,3.47,29.87,9.9c6.6,6.6,9.57,16.34,9.57,28.22v51.33h-24.26v-9.57c-6.11,6.77-14.36,11.22-26.74,11.22
				C977.36,433.61,963.66,424.2,963.66,406.55z M1021.26,400.77v-4.46c-4.46-1.98-9.9-3.3-16.01-3.3
				c-10.73,0-17.33,4.29-17.33,12.21v0.33c0,6.77,5.61,10.73,13.7,10.73C1013.5,416.28,1021.26,410.01,1021.26,400.77z"/>
		</g>
		<g>
			<path d="M1043.71,457.87v-19.64c1.98,0.33,3.8,0.49,5.28,0.49c5.28,0,8.91-2.81,8.91-10.23V343.5h25.09v86.97
				c0,19.64-9.74,28.39-28.39,28.39C1049.98,458.86,1047.17,458.53,1043.71,457.87z M1057.24,311.49h26.41v22.28h-26.41V311.49z"/>
		</g>
		<g>
			<path d="M1091.4,406.55v-0.33c0-19.14,14.69-28.22,35.65-28.22c9.08,0,15.18,1.49,21.62,3.63v-1.49
				c0-10.56-6.44-16.17-18.98-16.17c-9.74,0-16.34,1.65-24.43,4.79l-6.27-19.14c9.74-4.13,19.31-7.1,34.33-7.1
				c13.86,0,23.43,3.47,29.87,9.9c6.6,6.6,9.57,16.34,9.57,28.22v51.33h-24.26v-9.57c-6.11,6.77-14.36,11.22-26.74,11.22
				C1105.1,433.61,1091.4,424.2,1091.4,406.55z M1149,400.77v-4.46c-4.46-1.98-9.9-3.3-16.01-3.3c-10.73,0-17.33,4.29-17.33,12.21
				v0.33c0,6.77,5.61,10.73,13.7,10.73C1141.24,416.28,1149,410.01,1149,400.77z"/>
		</g>
		<g>
			<path d="M549.92,503.83v-0.33c0-29.54,19.31-45.71,40.27-45.71c13.37,0,21.62,6.11,27.56,13.2v-43.57h25.09v120.48h-25.09v-12.71
				c-6.11,8.42-14.36,14.36-27.56,14.36C569.56,549.54,549.92,533.37,549.92,503.83z M618.08,503.83v-0.33
				c0-14.69-9.74-24.43-21.45-24.43s-21.62,9.57-21.62,24.43v0.33c0,14.69,9.9,24.43,21.62,24.43S618.08,518.51,618.08,503.83z"/>
		</g>
		<g>
			<path d="M651.09,504.16v-0.33c0-25.25,17.99-46.04,43.73-46.04c29.54,0,43.07,22.94,43.07,48.03c0,1.98-0.17,4.13-0.33,6.6
				h-61.56c2.48,11.39,10.4,17.33,21.62,17.33c8.42,0,14.36-2.64,21.45-9.08l14.36,12.71c-8.42,10.4-20.13,16.5-36.14,16.5
				C670.73,549.87,651.09,531.22,651.09,504.16z M713.47,496.73c-1.49-11.22-8.09-18.81-18.65-18.81
				c-10.56,0-17.16,7.43-19.14,18.81H713.47z"/>
		</g>
		<g>
			<path d="M739.71,536.17l10.73-16.5c9.74,7.1,19.47,10.56,27.89,10.56c7.26,0,10.56-2.64,10.56-6.6v-0.33
				c0-5.45-8.58-7.1-18.32-10.23c-12.38-3.47-26.41-9.41-26.41-26.57v-0.33c0-17.99,14.52-28.06,32.35-28.06
				c11.22,0,23.27,3.8,33.01,10.23l-9.57,17.33c-8.75-5.12-17.49-8.25-23.93-8.25c-6.11,0-9.24,2.64-9.24,6.11v0.33
				c0,4.62,8.42,7.59,17.99,10.56c12.38,3.96,26.74,10.07,26.74,26.24v0.33c0,19.64-14.69,28.55-33.83,28.55
				C765.13,549.54,751.59,545.41,739.71,536.17z"/>
		</g>
		<g>
			<path d="M815.63,503.83v-0.33c0-29.54,19.31-45.71,40.27-45.71c13.37,0,21.62,6.11,27.56,13.2v-43.57h25.09v120.48h-25.09v-12.71
				c-6.11,8.42-14.36,14.36-27.56,14.36C835.27,549.54,815.63,533.37,815.63,503.83z M883.79,503.83v-0.33
				c0-14.69-9.74-24.43-21.45-24.43s-21.62,9.57-21.62,24.43v0.33c0,14.69,9.9,24.43,21.62,24.43S883.79,518.51,883.79,503.83z"/>
		</g>
		<g>
			<path d="M916.79,504.16v-0.33c0-25.25,17.99-46.04,43.73-46.04c29.54,0,43.07,22.94,43.07,48.03c0,1.98-0.17,4.13-0.33,6.6
				h-61.56c2.48,11.39,10.4,17.33,21.62,17.33c8.42,0,14.36-2.64,21.45-9.08l14.36,12.71c-8.42,10.4-20.13,16.5-36.14,16.5
				C936.43,549.87,916.79,531.22,916.79,504.16z M979.18,496.73c-1.49-11.22-8.09-18.81-18.65-18.81s-17.16,7.43-19.14,18.81H979.18
				z"/>
		</g>
		<g>
			<path d="M1056.08,522.8v-41.92h-10.56v-21.45h10.56v-22.61h25.09v22.61h20.79v21.45h-20.79v37.79c0,5.78,2.64,8.58,8.09,8.58
				c4.46,0,8.58-0.99,12.38-3.14v20.13c-5.28,3.14-11.39,5.12-19.8,5.12C1066.64,549.38,1056.08,543.27,1056.08,522.8z"/>
		</g>
		<g>
			<path d="M1109.88,516.7v-57.27h25.09v49.35c0,11.88,5.45,17.99,15.18,17.99c9.74,0,15.68-6.11,15.68-17.99v-49.35h25.08v88.46
				h-25.08v-12.54c-5.78,7.43-13.37,14.19-25.91,14.19C1120.77,549.54,1109.88,537.16,1109.88,516.7z"/>
		</g>
		<g>
			<path d="M558.17,596.82h-10.4v-20.63h10.4v-5.61c0-9.57,2.31-16.67,7.1-21.45c4.62-4.62,11.39-6.93,20.3-6.93
				c7.92,0,13.2,0.99,17.82,2.48v20.79c-3.8-1.32-6.93-2.15-11.39-2.15c-6.11,0-9.08,3.14-9.08,9.57v3.47h20.3v20.46h-19.97v67
				h-25.09V596.82z"/>
		</g>
		<g>
			<path d="M601.08,620.09v-0.33c0-25.42,20.46-46.04,48.03-46.04c27.23,0,47.7,20.13,47.7,45.71v0.33
				c0,25.42-20.47,46.04-48.03,46.04C621.55,665.8,601.08,645.67,601.08,620.09z M672.05,620.09v-0.33
				c0-13.04-9.41-24.43-23.27-24.43c-14.36,0-22.94,10.89-22.94,24.1v0.33c0,13.04,9.41,24.43,23.27,24.43
				C663.47,644.18,672.05,633.29,672.05,620.09z"/>
		</g>
		<g>
			<path d="M705.05,575.36h25.08v12.54c5.78-7.43,13.37-14.19,25.91-14.19c19.14,0,30.04,12.38,30.04,32.84v57.27H761v-49.35
				c0-11.88-5.45-17.99-15.18-17.99s-15.68,6.11-15.68,17.99v49.35h-25.08V575.36z"/>
		</g>
		<g>
			<path d="M794.01,619.75v-0.33c0-29.54,19.31-45.71,40.27-45.71c13.37,0,21.62,6.11,27.56,13.2v-43.57h25.09v120.48h-25.09v-12.71
				c-6.11,8.42-14.36,14.36-27.56,14.36C813.64,665.47,794.01,649.3,794.01,619.75z M862.17,619.75v-0.33
				c0-14.69-9.74-24.43-21.45-24.43s-21.62,9.57-21.62,24.43v0.33c0,14.69,9.9,24.43,21.62,24.43S862.17,634.44,862.17,619.75z"/>
		</g>
		<g>
			<path d="M895.17,620.09v-0.33c0-25.42,20.46-46.04,48.03-46.04c27.23,0,47.7,20.13,47.7,45.71v0.33
				c0,25.42-20.47,46.04-48.03,46.04C915.63,665.8,895.17,645.67,895.17,620.09z M966.14,620.09v-0.33
				c0-13.04-9.41-24.43-23.27-24.43c-14.36,0-22.94,10.89-22.94,24.1v0.33c0,13.04,9.41,24.43,23.27,24.43
				C957.55,644.18,966.14,633.29,966.14,620.09z"/>
		</g>
		<g>
			<path d="M1034.79,619.75v-0.33c0-29.54,19.31-45.71,40.27-45.71c13.37,0,21.62,6.11,27.56,13.2v-43.57h25.09v120.48h-25.09
				v-12.71c-6.11,8.42-14.36,14.36-27.56,14.36C1054.43,665.47,1034.79,649.3,1034.79,619.75z M1102.95,619.75v-0.33
				c0-14.69-9.74-24.43-21.45-24.43s-21.62,9.57-21.62,24.43v0.33c0,14.69,9.9,24.43,21.62,24.43S1102.95,634.44,1102.95,619.75z"/>
		</g>
		<g>
			<path d="M1135.95,620.09v-0.33c0-25.25,17.99-46.04,43.73-46.04c29.54,0,43.07,22.94,43.07,48.03c0,1.98-0.17,4.13-0.33,6.6
				h-61.56c2.48,11.39,10.4,17.33,21.62,17.33c8.42,0,14.36-2.64,21.45-9.08l14.36,12.71c-8.42,10.4-20.13,16.5-36.14,16.5
				C1155.59,665.8,1135.95,647.15,1135.95,620.09z M1198.34,612.66c-1.49-11.22-8.09-18.81-18.65-18.81s-17.16,7.43-19.14,18.81
				H1198.34z"/>
		</g>
		<g>
			<path d="M553.88,691.29h25.08V704c6.11-8.42,14.36-14.36,27.56-14.36c20.63,0,40.27,16.17,40.27,45.71v0.33
				c0,29.54-19.31,45.71-40.27,45.71c-13.37,0-21.62-6.11-27.56-13.2v37.96h-25.08V691.29z M621.71,735.68v-0.33
				c0-14.69-9.9-24.43-21.62-24.43c-11.72,0-21.45,9.74-21.45,24.43v0.33c0,14.69,9.74,24.43,21.45,24.43
				C611.81,760.11,621.71,750.54,621.71,735.68z"/>
		</g>
		<g>
			<path d="M650.1,754.33V754c0-19.14,14.69-28.22,35.65-28.22c9.08,0,15.18,1.49,21.62,3.63v-1.49c0-10.56-6.44-16.17-18.98-16.17
				c-9.74,0-16.34,1.65-24.43,4.79l-6.27-19.14c9.74-4.13,19.31-7.1,34.33-7.1c13.86,0,23.44,3.47,29.87,9.9
				c6.6,6.6,9.57,16.34,9.57,28.22v51.33H707.2v-9.57c-6.11,6.77-14.36,11.22-26.74,11.22C663.8,781.4,650.1,771.99,650.1,754.33z
				 M707.69,748.56v-4.46c-4.46-1.98-9.9-3.3-16.01-3.3c-10.73,0-17.33,4.29-17.33,12.21v0.33c0,6.77,5.61,10.73,13.7,10.73
				C699.94,764.07,707.69,757.8,707.69,748.56z"/>
		</g>
		<g>
			<path d="M743.18,691.29h25.08v12.54c5.78-7.43,13.37-14.19,25.91-14.19c19.14,0,30.04,12.38,30.04,32.84v57.27h-25.09V730.4
				c0-11.88-5.45-17.99-15.18-17.99c-9.74,0-15.68,6.11-15.68,17.99v49.35h-25.08V691.29z"/>
		</g>
		<g>
			<path d="M840.22,754.66v-41.92h-10.56v-21.45h10.56v-22.61h25.09v22.61h20.79v21.45H865.3v37.79c0,5.78,2.64,8.58,8.09,8.58
				c4.46,0,8.58-0.99,12.38-3.14v20.13c-5.28,3.14-11.39,5.12-19.8,5.12C850.78,781.23,840.22,775.13,840.22,754.66z"/>
		</g>
		<g>
			<path d="M889.4,754.33V754c0-19.14,14.69-28.22,35.65-28.22c9.08,0,15.18,1.49,21.62,3.63v-1.49c0-10.56-6.44-16.17-18.98-16.17
				c-9.74,0-16.34,1.65-24.43,4.79l-6.27-19.14c9.74-4.13,19.31-7.1,34.33-7.1c13.86,0,23.44,3.47,29.87,9.9
				c6.6,6.6,9.57,16.34,9.57,28.22v51.33H946.5v-9.57c-6.11,6.77-14.36,11.22-26.74,11.22C903.09,781.4,889.4,771.99,889.4,754.33z
				 M946.99,748.56v-4.46c-4.46-1.98-9.9-3.3-16.01-3.3c-10.73,0-17.33,4.29-17.33,12.21v0.33c0,6.77,5.61,10.73,13.7,10.73
				C939.24,764.07,946.99,757.8,946.99,748.56z"/>
		</g>
		<g>
			<path d="M983.63,659.27h25.09v120.48h-25.09V659.27z"/>
		</g>
		<g>
			<path d="M1023.57,659.27h25.09v120.48h-25.09V659.27z"/>
		</g>
		<g>
			<path d="M1057.07,754.33V754c0-19.14,14.69-28.22,35.65-28.22c9.08,0,15.18,1.49,21.62,3.63v-1.49
				c0-10.56-6.44-16.17-18.98-16.17c-9.74,0-16.34,1.65-24.43,4.79l-6.27-19.14c9.74-4.13,19.31-7.1,34.33-7.1
				c13.86,0,23.44,3.47,29.87,9.9c6.6,6.6,9.57,16.34,9.57,28.22v51.33h-24.26v-9.57c-6.11,6.77-14.36,11.22-26.74,11.22
				C1070.76,781.4,1057.07,771.99,1057.07,754.33z M1114.66,748.56v-4.46c-4.46-1.98-9.9-3.3-16.01-3.3
				c-10.73,0-17.33,4.29-17.33,12.21v0.33c0,6.77,5.61,10.73,13.7,10.73C1106.91,764.07,1114.66,757.8,1114.66,748.56z"/>
		</g>
	</g>
	<g>
		<g>
			<path d="M1428.11,849.99H485.55c-2.1,0-3.8-1.7-3.8-3.8V256.62c0-2.1,1.7-3.8,3.8-3.8h942.56c2.1,0,3.8,1.7,3.8,3.8v589.57
				C1431.91,848.29,1430.21,849.99,1428.11,849.99z M489.35,842.39h934.95V260.42H489.35V842.39z"/>
		</g>
		<g>
			<path d="M1465.66,888.48c-2.1,0-3.8-1.7-3.8-3.79c-0.01-5.48-0.93-549,0-610.29c0.31-20.46-4.47-35.39-14.2-44.35
				c-11.24-10.35-25.6-9.09-25.74-9.08c-0.12,0.01-0.28,0.04-0.39,0.02c-4.24,0-214.75-0.23-433.59-0.23
				c-222.28,0-453.15,0.23-485.38,1.17c-0.11,0-0.22,0-0.33-0.01c-19.46-1.12-33.31,3.05-41.15,12.4
				c-11.21,13.37-6.61,33.41-6.56,33.61c0.07,0.29,0.1,0.59,0.1,0.89l-0.94,614.91c0,2.1-1.7,3.79-3.8,3.79c0,0,0,0-0.01,0
				c-2.1,0-3.8-1.71-3.79-3.81l0.94-614.49c-0.75-3.51-4.55-24.49,8.2-39.75c9.44-11.31,25.35-16.41,47.29-15.17
				c65.07-1.84,902.67-0.95,918.86-0.94c2.18-0.18,18.21-1.04,31.34,10.97c11.46,10.49,17.1,27.36,16.75,50.15
				c-0.93,61.22-0.01,604.67,0,610.16C1469.47,886.77,1467.77,888.48,1465.66,888.48C1465.67,888.48,1465.66,888.48,1465.66,888.48z
				"/>
		</g>
		<g>
			<path d="M1543.35,927.67C1543.34,927.67,1543.34,927.67,1543.35,927.67l-641.44-1.41H373.13c-0.49,0-0.98-0.1-1.44-0.28
				l-34.5-14.08c-1.43-0.58-2.36-1.97-2.36-3.52v-23.94c0-1.01,0.4-1.98,1.11-2.69c0.71-0.71,1.68-1.11,2.69-1.11c0,0,0,0,0,0
				l1241.33,0.7c2,0,3.66,1.56,3.79,3.56l1.41,21.83c0.1,1.59-0.8,3.07-2.25,3.72l-38.02,16.9
				C1544.4,927.56,1543.88,927.67,1543.35,927.67z M373.88,918.66h528.03l640.63,1.41l34.86-15.49l-1.01-15.63l-1233.97-0.7v17.58
				L373.88,918.66z"/>
		</g>
		<g>
			<path d="M338.63,912.18c-2.1,0-3.8-1.7-3.8-3.8c0-2.1,1.7-3.8,3.8-3.81l1242.74-1.41c0,0,0,0,0,0c2.1,0,3.8,1.7,3.8,3.8
				c0,2.1-1.7,3.8-3.8,3.81L338.63,912.18C338.63,912.18,338.63,912.18,338.63,912.18z"/>
		</g>
		<g>
			<path d="M935.56,899.56c-16.91,0-30.41-0.08-32.9-0.32c-9.17-0.89-11.67-12.88-11.77-13.39l5.53-1.1l-2.76,0.55l2.76-0.56
				c0.02,0.08,1.86,8.41,6.79,8.89c4.82,0.47,58.52,0.31,107.16,0.01c3.68-0.02,7.05-1.3,9.51-3.59c1.3-1.22,1.98-2.38,2.02-3.47
				l5.63,0.22c-0.1,2.62-1.38,5.1-3.8,7.37c-3.49,3.26-8.22,5.08-13.32,5.11C996.02,899.37,961.71,899.56,935.56,899.56z"/>
		</g>
		<g>
			<g>
				<path d="M958.94,247.24c-4.28,0-7.76-3.48-7.76-7.75c0-4.28,3.48-7.75,7.76-7.75c4.28,0,7.75,3.48,7.75,7.75
					C966.7,243.76,963.22,247.24,958.94,247.24z M958.94,236.45c-1.68,0-3.04,1.36-3.04,3.04s1.36,3.04,3.04,3.04
					s3.04-1.36,3.04-3.04S960.62,236.45,958.94,236.45z"/>
			</g>
		</g>
	</g>
</g>
</svg>
