<?xml version="1.0" encoding="UTF-8"?>
<svg id="Capa_2" data-name="Capa 2" xmlns="http://www.w3.org/2000/svg" viewBox="0 0 1250.34 714.51">
  <g id="Capa_1-2" data-name="Capa 1">
    <g>
      <path d="m1093.28,636.83H150.72c-2.1,0-3.8-1.7-3.8-3.8V43.46c0-2.1,1.7-3.8,3.8-3.8h942.56c2.1,0,3.8,1.7,3.8,3.8v589.57c0,2.1-1.7,3.8-3.8,3.8Zm-938.76-7.6h934.95V47.26H154.52v581.97Z"/>
      <path d="m1130.83,675.32c-2.1,0-3.8-1.7-3.8-3.79,0-5.48-.93-549,0-610.29.31-20.46-4.47-35.39-14.2-44.35-11.24-10.35-25.6-9.09-25.74-9.08-.12.01-.28.04-.39.02-4.24,0-214.75-.23-433.59-.23s-453.15.23-485.38,1.17c-.11,0-.22,0-.33,0-19.46-1.12-33.31,3.05-41.15,12.4-11.21,13.37-6.61,33.41-6.56,33.61.07.29.1.59.1.89l-.94,614.91c0,2.1-1.7,3.79-3.8,3.79h0c-2.1,0-3.8-1.71-3.79-3.81l.94-614.49c-.75-3.51-4.55-24.49,8.2-39.75C129.83,5.03,145.73-.08,167.68,1.17,232.75-.68,1070.34.21,1086.54.23c2.18-.18,18.21-1.04,31.34,10.97,11.46,10.49,17.1,27.36,16.75,50.15-.93,61.22,0,604.67,0,610.16,0,2.1-1.7,3.8-3.79,3.81h0Z"/>
      <path d="m1208.52,714.51h0l-641.44-1.41H38.3c-.49,0-.98-.1-1.44-.28l-34.5-14.08C.93,698.16,0,696.77,0,695.22v-23.94c0-1.01.4-1.98,1.11-2.69.71-.71,1.68-1.11,2.69-1.11h0l1241.33.7c2,0,3.66,1.56,3.79,3.56l1.41,21.83c.1,1.59-.8,3.07-2.25,3.72l-38.02,16.9c-.49.22-1.01.33-1.54.33Zm-1169.47-9.01h528.03l640.63,1.41,34.86-15.49-1.01-15.63-1233.97-.7v17.58l31.45,12.84Z"/>
      <path d="m3.8,699.02C1.7,699.02,0,697.33,0,695.23c0-2.1,1.7-3.8,3.8-3.81l1242.74-1.41h0c2.1,0,3.8,1.7,3.8,3.8,0,2.1-1.7,3.8-3.8,3.81l-1242.74,1.41h0Z"/>
      <path d="m600.73,686.4c-16.91,0-30.41-.08-32.9-.32-9.17-.89-11.67-12.88-11.77-13.39l5.53-1.1-2.76.55,2.76-.56c.02.08,1.86,8.41,6.79,8.89,4.82.47,58.52.31,107.16.01,3.68-.02,7.05-1.3,9.51-3.59,1.3-1.22,1.98-2.38,2.02-3.47l5.63.22c-.1,2.62-1.38,5.1-3.8,7.37-3.49,3.26-8.22,5.08-13.32,5.11-14.37.09-48.69.28-74.83.28Z"/>
      <path d="m624.11,34.08c-4.28,0-7.76-3.48-7.76-7.75s3.48-7.75,7.76-7.75,7.75,3.48,7.75,7.75-3.48,7.75-7.75,7.75Zm0-10.8c-1.68,0-3.04,1.36-3.04,3.04s1.36,3.04,3.04,3.04,3.04-1.36,3.04-3.04-1.36-3.04-3.04-3.04Z"/>
    </g>
    <g>
      <path d="m329.48,222.19h-20.88l-4.7,28.21h-24.83l4.7-28.21h-27.08l-4.89,28.21h-24.83l4.7-28.21h-14.11v-24.07h18.24l4.89-27.84h-16.55v-24.07h20.69l4.7-27.46h24.83l-4.7,27.46h27.27l4.7-27.46h24.83l-4.7,27.46h14.29v24.07h-18.43l-4.89,27.84h16.74v24.07Zm-69.4-23.32h28.4l4.89-29.34h-28.4l-4.89,29.34Z"/>
      <path d="m335.87,149.59h28.96l16.17,61.13,19-61.5h24.64l19.18,61.69,16.55-61.31h28.4l-31.41,101.56h-25.77l-19.37-61.88-19.75,61.88h-25.58l-31.03-101.56Z"/>
      <path d="m485.21,200.56v-.38c0-28.96,23.32-52.47,54.73-52.47s54.35,22.95,54.35,52.1v.38c0,28.96-23.32,52.47-54.73,52.47s-54.36-22.95-54.36-52.1Zm80.87,0v-.38c0-14.86-10.72-27.83-26.52-27.83s-26.14,12.41-26.14,27.46v.38c0,14.86,10.72,27.84,26.52,27.84s26.14-12.41,26.14-27.46Z"/>
      <path d="m603.7,149.59h28.59v20.31c5.83-13.73,15.05-22.95,32.16-22.19v29.9h-1.5c-19,0-30.66,11.29-30.66,35.55v37.24h-28.59v-100.81Z"/>
      <path d="m671.03,113.1h28.59v73.16l33.48-36.68h34.23l-38.37,39.68,39.69,61.13h-33.1l-25.77-41.38-10.16,10.72v30.66h-28.59V113.1Z"/>
      <path d="m228.67,321.5h-11.85v-23.51h11.85v-6.39c0-10.91,2.63-19,8.09-24.45,5.27-5.27,12.98-7.9,23.13-7.9,9.03,0,15.05,1.13,20.31,2.82v23.7c-4.33-1.5-7.9-2.45-12.98-2.45-6.96,0-10.34,3.57-10.34,10.91v3.95h23.13v23.32h-22.76v76.36h-28.59v-76.36Z"/>
      <path d="m284.34,297.05h28.59v20.31c5.83-13.73,15.05-22.95,32.16-22.19v29.9h-1.5c-19,0-30.66,11.29-30.66,35.55v37.24h-28.59v-100.81Z"/>
      <path d="m343.96,348.02v-.38c0-28.96,23.32-52.47,54.73-52.47s54.35,22.95,54.35,52.1v.38c0,28.96-23.32,52.47-54.73,52.47s-54.36-22.95-54.36-52.1Zm80.87,0v-.38c0-14.86-10.72-27.83-26.52-27.83s-26.14,12.41-26.14,27.46v.38c0,14.86,10.72,27.84,26.52,27.84s26.14-12.41,26.14-27.46Z"/>
      <path d="m462.45,297.05h28.59v14.29c6.58-8.46,15.23-16.17,29.72-16.17,13.35,0,23.13,5.64,28.4,15.99,8.84-10.53,19.37-15.99,33.1-15.99,21.25,0,34.04,12.79,34.04,37.05v65.64h-28.59v-56.24c0-13.54-6.02-20.5-16.74-20.5s-17.3,6.96-17.3,20.5v56.24h-28.59v-56.24c0-13.54-6.02-20.5-16.74-20.5s-17.3,6.96-17.3,20.5v56.24h-28.59v-100.81Z"/>
      <path d="m741.18,297.05h29.72l-38.74,103.26c-7.52,20.5-16.17,28.21-33.1,28.21-10.53,0-18.06-2.63-25.39-6.96l9.59-20.69c3.76,2.26,8.46,3.95,12.23,3.95,5.08,0,7.52-1.5,9.97-6.58l-39.5-101.19h30.28l22.95,68.65,22-68.65Z"/>
      <path d="m766.01,348.02v-.38c0-28.96,23.32-52.47,54.73-52.47s54.35,22.95,54.35,52.1v.38c0,28.96-23.32,52.47-54.73,52.47s-54.36-22.95-54.36-52.1Zm80.87,0v-.38c0-14.86-10.72-27.83-26.52-27.83s-26.14,12.41-26.14,27.46v.38c0,14.86,10.72,27.84,26.52,27.84s26.14-12.41,26.14-27.46Z"/>
      <path d="m883.74,362.31v-65.26h28.59v56.24c0,13.54,6.21,20.5,17.3,20.5s17.87-6.96,17.87-20.5v-56.24h28.59v100.81h-28.59v-14.29c-6.58,8.46-15.23,16.17-29.53,16.17-21.82,0-34.23-14.11-34.23-37.43Z"/>
      <path d="m990.38,297.05h28.59v20.31c5.83-13.73,15.05-22.95,32.16-22.19v29.9h-1.5c-19,0-30.66,11.29-30.66,35.55v37.24h-28.59v-100.81Z"/>
      <path d="m215.5,444.51h28.96l16.17,61.13,19-61.5h24.64l19.18,61.69,16.55-61.31h28.4l-31.41,101.56h-25.77l-19.37-61.88-19.75,61.88h-25.58l-31.03-101.56Z"/>
      <path d="m364.65,516.36v-.38c0-21.82,16.74-32.16,40.63-32.16,10.34,0,17.3,1.69,24.64,4.14v-1.69c0-12.04-7.33-18.43-21.63-18.43-11.1,0-18.62,1.88-27.84,5.46l-7.15-21.82c11.1-4.7,22-8.09,39.12-8.09,15.8,0,26.71,3.95,34.04,11.29,7.52,7.52,10.91,18.62,10.91,32.16v58.49h-27.65v-10.91c-6.96,7.71-16.36,12.79-30.47,12.79-19,0-34.61-10.72-34.61-30.84Zm65.64-6.58v-5.08c-5.08-2.26-11.29-3.76-18.24-3.76-12.23,0-19.75,4.89-19.75,13.92v.38c0,7.71,6.39,12.23,15.61,12.23,13.54,0,22.38-7.15,22.38-17.68Z"/>
      <path d="m472.05,408.03h28.59v137.3h-28.59v-137.3Z"/>
      <path d="m517.56,408.03h28.59v137.3h-28.59v-137.3Z"/>
      <path d="m561.75,444.51h28.59v14.48c6.96-9.59,16.36-16.36,31.41-16.36,23.51,0,45.89,18.43,45.89,52.1v.38c0,33.67-22.01,52.1-45.89,52.1-15.23,0-24.64-6.96-31.41-15.05v43.26h-28.59v-130.9Zm77.3,50.59v-.38c0-16.74-11.28-27.84-24.64-27.84s-24.45,11.1-24.45,27.84v.38c0,16.74,11.1,27.84,24.45,27.84s24.64-10.91,24.64-27.84Z"/>
      <path d="m671.4,516.36v-.38c0-21.82,16.74-32.16,40.63-32.16,10.34,0,17.3,1.69,24.64,4.14v-1.69c0-12.04-7.33-18.43-21.63-18.43-11.1,0-18.62,1.88-27.84,5.46l-7.15-21.82c11.1-4.7,22-8.09,39.12-8.09,15.8,0,26.71,3.95,34.04,11.29,7.52,7.52,10.91,18.62,10.91,32.16v58.49h-27.65v-10.91c-6.96,7.71-16.36,12.79-30.47,12.79-19,0-34.61-10.72-34.61-30.84Zm65.64-6.58v-5.08c-5.08-2.26-11.29-3.76-18.24-3.76-12.23,0-19.75,4.89-19.75,13.92v.38c0,7.71,6.39,12.23,15.61,12.23,13.54,0,22.38-7.15,22.38-17.68Z"/>
      <path d="m777.48,444.51h28.59v14.48c6.96-9.59,16.36-16.36,31.41-16.36,23.51,0,45.89,18.43,45.89,52.1v.38c0,33.67-22.01,52.1-45.89,52.1-15.23,0-24.64-6.96-31.41-15.05v43.26h-28.59v-130.9Zm77.3,50.59v-.38c0-16.74-11.28-27.84-24.64-27.84s-24.45,11.1-24.45,27.84v.38c0,16.74,11.1,27.84,24.45,27.84s24.64-10.91,24.64-27.84Z"/>
      <path d="m888.26,495.48v-.38c0-28.78,20.5-52.47,49.84-52.47,33.67,0,49.09,26.14,49.09,54.73,0,2.26-.19,4.7-.38,7.52h-70.15c2.82,12.98,11.85,19.75,24.64,19.75,9.59,0,16.36-3.01,24.45-10.34l16.36,14.48c-9.59,11.85-22.95,18.81-41.19,18.81-30.28,0-52.66-21.25-52.66-52.1Zm71.09-8.46c-1.69-12.79-9.22-21.44-21.25-21.44s-19.56,8.46-21.82,21.44h43.07Z"/>
      <path d="m997.16,444.51h28.59v20.31c5.83-13.73,15.05-22.95,32.16-22.19v29.9h-1.5c-19,0-30.66,11.29-30.66,35.55v37.24h-28.59v-100.81Z"/>
    </g>
  </g>
</svg>