<?xml version="1.0" encoding="utf-8"?>
<!-- Generator: Adobe Illustrator 26.5.2, SVG Export Plug-In . SVG Version: 6.00 Build 0)  -->
<svg version="1.1" id="Capa_1" xmlns="http://www.w3.org/2000/svg" xmlns:xlink="http://www.w3.org/1999/xlink" x="0px" y="0px"
	 viewBox="0 0 31.88 32" style="enable-background:new 0 0 31.88 32;" xml:space="preserve">
<style type="text/css">
	.st0{fill:#FFFFFF;}
	.st1{fill:#FFFFFF;stroke:#353435;stroke-width:3.9845;stroke-miterlimit:10;}
</style>
<g>
	<g>
		<g>
			<path class="st0" d="M29.58,22.63H2.26c-0.06,0-0.11-0.05-0.11-0.1V6.24c0-0.06,0.05-0.1,0.11-0.1h27.32
				c0.06,0,0.11,0.05,0.11,0.1v16.29C29.69,22.58,29.64,22.63,29.58,22.63z M2.37,22.42h27.1V6.34H2.37V22.42z"/>
		</g>
		<g>
			<path class="st1" d="M4.17,5.23"/>
		</g>
		<g>
			<path class="st0" d="M30.67,23.69c-0.06,0-0.11-0.05-0.11-0.1c0-0.15-0.03-15.17,0-16.86c0.01-0.57-0.13-0.98-0.41-1.23
				c-0.33-0.29-0.74-0.25-0.75-0.25c0,0-0.01,0-0.01,0c-0.12,0-6.22-0.01-12.57-0.01c-6.44,0-13.13,0.01-14.07,0.03
				c0,0-0.01,0-0.01,0C2.18,5.25,1.78,5.36,1.55,5.62C1.23,5.99,1.36,6.55,1.36,6.55c0,0.01,0,0.02,0,0.02L1.34,23.56
				c0,0.06-0.05,0.1-0.11,0.1c0,0,0,0,0,0c-0.06,0-0.11-0.05-0.11-0.11L1.14,6.59c-0.02-0.1-0.13-0.68,0.24-1.1
				c0.27-0.31,0.73-0.45,1.37-0.42c1.89-0.05,26.16-0.03,26.63-0.03c0.06,0,0.53-0.03,0.91,0.3c0.33,0.29,0.5,0.76,0.49,1.39
				c-0.03,1.69,0,16.7,0,16.86C30.78,23.65,30.73,23.69,30.67,23.69C30.67,23.69,30.67,23.69,30.67,23.69z"/>
		</g>
		<g>
			<path class="st0" d="M32.92,24.78C32.92,24.78,32.92,24.78,32.92,24.78l-18.59-0.04H-1c-0.01,0-0.03,0-0.04-0.01l-1-0.39
				c-0.04-0.02-0.07-0.05-0.07-0.1v-0.66c0-0.03,0.01-0.05,0.03-0.07c0.02-0.02,0.05-0.03,0.08-0.03c0,0,0,0,0,0l35.97,0.02
				c0.06,0,0.11,0.04,0.11,0.1l0.04,0.6c0,0.04-0.02,0.08-0.07,0.1l-1.1,0.47C32.95,24.77,32.93,24.78,32.92,24.78z M-0.98,24.53
				h15.3l18.57,0.04l1.01-0.43l-0.03-0.43l-35.76-0.02v0.49L-0.98,24.53z"/>
		</g>
		<g>
			<path class="st0" d="M-2,24.35c-0.06,0-0.11-0.05-0.11-0.1c0-0.06,0.05-0.11,0.11-0.11l36.01-0.04c0,0,0,0,0,0
				c0.06,0,0.11,0.05,0.11,0.1c0,0.06-0.05,0.11-0.11,0.11L-2,24.35C-2,24.35-2,24.35-2,24.35z"/>
		</g>
		<g>
			<path class="st0" d="M15.3,24c-0.49,0-0.88,0-0.95-0.01c-0.27-0.02-0.34-0.36-0.34-0.37l0.16-0.03l-0.08,0.02l0.08-0.02
				c0,0,0.05,0.23,0.2,0.25c0.14,0.01,1.7,0.01,3.11,0c0.11,0,0.2-0.04,0.28-0.1c0.04-0.03,0.06-0.07,0.06-0.1l0.16,0.01
				c0,0.07-0.04,0.14-0.11,0.2c-0.1,0.09-0.24,0.14-0.39,0.14C17.05,23.99,16.06,24,15.3,24z"/>
		</g>
		<g>
			<g>
				<path class="st0" d="M15.98,5.98c-0.12,0-0.22-0.1-0.22-0.21s0.1-0.21,0.22-0.21c0.12,0,0.22,0.1,0.22,0.21
					S16.1,5.98,15.98,5.98z M15.98,5.68c-0.05,0-0.09,0.04-0.09,0.08s0.04,0.08,0.09,0.08c0.05,0,0.09-0.04,0.09-0.08
					S16.03,5.68,15.98,5.68z"/>
			</g>
		</g>
	</g>
</g>
</svg>
